<?xml version="1.0" encoding="UTF-8"?>
<svg xmlns="http://www.w3.org/2000/svg" xmlns:xlink="http://www.w3.org/1999/xlink" width="36pt" height="36pt" viewBox="0 0 36 36" version="1.1">
<defs>
<filter id="alpha" filterUnits="objectBoundingBox" x="0%" y="0%" width="100%" height="100%">
  <feColorMatrix type="matrix" in="SourceGraphic" values="0 0 0 0 1 0 0 0 0 1 0 0 0 0 1 0 0 0 1 0"/>
</filter>
<mask id="mask0">
  <g filter="url(#alpha)">
<rect x="0" y="0" width="36" height="36" style="fill:rgb(0%,0%,0%);fill-opacity:0.101961;stroke:none;"/>
  </g>
</mask>
<clipPath id="clip1">
  <rect x="0" y="0" width="36" height="36"/>
</clipPath>
<g id="surface5" clip-path="url(#clip1)">
<path style=" stroke:none;fill-rule:nonzero;fill:rgb(100%,100%,100%);fill-opacity:1;" d="M 27.449219 2.292969 C 27.269531 2.75 25.800781 2.6875 24.519531 3.429688 C 23.191406 4.085938 22.421875 5.34375 21.941406 5.238281 C 21.433594 5.195312 21.589844 2.964844 23.675781 1.839844 C 25.773438 0.726562 27.699219 1.84375 27.449219 2.292969 Z M 27.449219 2.292969 "/>
</g>
<mask id="mask1">
  <g filter="url(#alpha)">
<rect x="0" y="0" width="36" height="36" style="fill:rgb(0%,0%,0%);fill-opacity:0.14902;stroke:none;"/>
  </g>
</mask>
<clipPath id="clip2">
  <rect x="0" y="0" width="36" height="36"/>
</clipPath>
<g id="surface8" clip-path="url(#clip2)">
<path style=" stroke:none;fill-rule:nonzero;fill:rgb(100%,100%,100%);fill-opacity:1;" d="M 27.015625 9.925781 C 25.839844 9.925781 24.878906 8.96875 24.878906 7.800781 C 24.878906 6.613281 25.839844 5.652344 27.015625 5.652344 C 27.984375 5.652344 28.796875 6.308594 29.058594 7.199219 C 29.617188 5.820312 29.929688 4.316406 29.929688 2.738281 C 29.929688 1.96875 29.851562 1.21875 29.710938 0.488281 C 28.871094 0.179688 27.964844 0 27.015625 0 C 22.714844 0 19.226562 3.488281 19.226562 7.789062 C 19.226562 9.410156 20.324219 11.75 21.699219 14.039062 C 24.058594 13.277344 26.089844 11.792969 27.550781 9.851562 C 27.378906 9.894531 27.203125 9.925781 27.015625 9.925781 Z M 27.015625 9.925781 "/>
</g>
<mask id="mask2">
  <g filter="url(#alpha)">
<rect x="0" y="0" width="36" height="36" style="fill:rgb(0%,0%,0%);fill-opacity:0.101961;stroke:none;"/>
  </g>
</mask>
<clipPath id="clip3">
  <rect x="0" y="0" width="36" height="36"/>
</clipPath>
<g id="surface11" clip-path="url(#clip3)">
<path style=" stroke:none;fill-rule:nonzero;fill:rgb(100%,100%,100%);fill-opacity:1;" d="M 9.6875 11.171875 C 9.605469 11.375 8.957031 11.347656 8.390625 11.675781 C 7.800781 11.964844 7.460938 12.523438 7.25 12.476562 C 7.023438 12.457031 7.09375 11.46875 8.015625 10.972656 C 8.945312 10.480469 9.796875 10.976562 9.6875 11.171875 Z M 9.6875 11.171875 "/>
</g>
<mask id="mask3">
  <g filter="url(#alpha)">
<rect x="0" y="0" width="36" height="36" style="fill:rgb(0%,0%,0%);fill-opacity:0.14902;stroke:none;"/>
  </g>
</mask>
<clipPath id="clip4">
  <rect x="0" y="0" width="36" height="36"/>
</clipPath>
<g id="surface14" clip-path="url(#clip4)">
<path style=" stroke:none;fill-rule:nonzero;fill:rgb(100%,100%,100%);fill-opacity:1;" d="M 9.492188 14.554688 C 8.972656 14.554688 8.546875 14.128906 8.546875 13.613281 C 8.546875 13.085938 8.972656 12.660156 9.492188 12.660156 C 9.921875 12.660156 10.28125 12.949219 10.398438 13.34375 C 10.644531 12.734375 10.785156 12.070312 10.785156 11.371094 C 10.785156 11.03125 10.75 10.699219 10.6875 10.375 C 10.316406 10.238281 9.914062 10.160156 9.492188 10.160156 C 7.589844 10.160156 6.042969 11.703125 6.042969 13.609375 C 6.042969 14.324219 6.53125 15.359375 7.140625 16.375 C 8.183594 16.039062 9.085938 15.382812 9.730469 14.519531 C 9.65625 14.539062 9.574219 14.554688 9.492188 14.554688 Z M 9.492188 14.554688 "/>
</g>
<mask id="mask4">
  <g filter="url(#alpha)">
<rect x="0" y="0" width="36" height="36" style="fill:rgb(0%,0%,0%);fill-opacity:0.101961;stroke:none;"/>
  </g>
</mask>
<clipPath id="clip5">
  <rect x="0" y="0" width="36" height="36"/>
</clipPath>
<g id="surface17" clip-path="url(#clip5)">
<path style=" stroke:none;fill-rule:nonzero;fill:rgb(100%,100%,100%);fill-opacity:1;" d="M 16.027344 21.902344 C 15.949219 22.109375 15.300781 22.078125 14.730469 22.40625 C 14.140625 22.695312 13.800781 23.253906 13.589844 23.207031 C 13.363281 23.191406 13.433594 22.199219 14.359375 21.703125 C 15.285156 21.210938 16.140625 21.707031 16.027344 21.902344 Z M 16.027344 21.902344 "/>
</g>
<mask id="mask5">
  <g filter="url(#alpha)">
<rect x="0" y="0" width="36" height="36" style="fill:rgb(0%,0%,0%);fill-opacity:0.14902;stroke:none;"/>
  </g>
</mask>
<clipPath id="clip6">
  <rect x="0" y="0" width="36" height="36"/>
</clipPath>
<g id="surface20" clip-path="url(#clip6)">
<path style=" stroke:none;fill-rule:nonzero;fill:rgb(100%,100%,100%);fill-opacity:1;" d="M 15.835938 25.285156 C 15.316406 25.285156 14.890625 24.859375 14.890625 24.34375 C 14.890625 23.816406 15.316406 23.390625 15.835938 23.390625 C 16.265625 23.390625 16.625 23.679688 16.738281 24.078125 C 16.988281 23.464844 17.128906 22.800781 17.128906 22.101562 C 17.128906 21.761719 17.09375 21.429688 17.03125 21.105469 C 16.65625 20.96875 16.257812 20.890625 15.835938 20.890625 C 13.933594 20.890625 12.386719 22.433594 12.386719 24.339844 C 12.386719 25.054688 12.875 26.09375 13.480469 27.105469 C 14.527344 26.769531 15.425781 26.113281 16.074219 25.253906 C 15.996094 25.269531 15.917969 25.285156 15.835938 25.285156 Z M 15.835938 25.285156 "/>
</g>
</defs>
<g id="surface1">
<path style=" stroke:none;fill-rule:nonzero;fill:rgb(85.490196%,89.803922%,93.72549%);fill-opacity:1;" d="M 31.53125 15.792969 L 35.964844 31.460938 C 36.078125 31.859375 35.902344 32.210938 35.515625 32.324219 L 24.351562 35.683594 C 24.167969 35.730469 23.972656 35.730469 23.785156 35.683594 L 13.183594 32.644531 L 1.058594 35.957031 C 0.363281 36.148438 -0.148438 35.664062 0.0390625 34.992188 L 4.925781 17.722656 C 4.992188 17.484375 5.261719 17.28125 5.597656 17.214844 L 14.441406 15.453125 C 14.570312 15.429688 14.707031 15.429688 14.835938 15.453125 L 22.496094 17.03125 L 30.511719 15.324219 C 30.929688 15.234375 31.441406 15.46875 31.53125 15.792969 Z M 31.53125 15.792969 "/>
<path style=" stroke:none;fill-rule:nonzero;fill:rgb(24.313725%,26.27451%,27.843137%);fill-opacity:1;" d="M 13.339844 30.839844 L 2.277344 33.769531 L 6.246094 18.105469 L 14.558594 16.417969 Z M 13.339844 30.839844 "/>
<path style=" stroke:none;fill-rule:nonzero;fill:rgb(24.313725%,26.27451%,27.843137%);fill-opacity:1;" d="M 33.980469 30.839844 L 23.90625 33.769531 L 22.585938 18.105469 L 30.328125 16.417969 Z M 33.980469 30.839844 "/>
<path style=" stroke:none;fill-rule:nonzero;fill:rgb(35.294118%,37.254902%,38.823529%);fill-opacity:1;" d="M 13.339844 30.839844 L 23.90625 33.769531 L 22.585938 18.105469 L 14.558594 16.417969 Z M 13.339844 30.839844 "/>
<path style=" stroke:none;fill-rule:nonzero;fill:rgb(60.392157%,47.45098%,37.254902%);fill-opacity:1;" d="M 8.605469 25.78125 L 9.230469 31.929688 L 13.339844 30.839844 L 13.914062 24.023438 Z M 8.605469 25.78125 "/>
<path style=" stroke:none;fill-rule:nonzero;fill:rgb(60.392157%,47.45098%,37.254902%);fill-opacity:1;" d="M 9.765625 24.761719 L 13.96875 23.386719 L 14.144531 21.316406 Z M 9.765625 24.761719 "/>
<path style=" stroke:none;fill-rule:nonzero;fill:rgb(60.392157%,47.45098%,37.254902%);fill-opacity:1;" d="M 11.175781 22.890625 L 5.488281 21.09375 L 4.089844 26.617188 L 8.035156 25.328125 Z M 11.175781 22.890625 "/>
<path style=" stroke:none;fill-rule:nonzero;fill:rgb(91.372549%,69.019608%,17.254902%);fill-opacity:1;" d="M 14.210938 20.539062 L 14.558594 16.417969 L 6.246094 18.105469 L 5.632812 20.53125 L 11.757812 22.441406 Z M 14.210938 20.539062 "/>
<path style=" stroke:none;fill-rule:nonzero;fill:rgb(49.803922%,69.803922%,22.352941%);fill-opacity:1;" d="M 3.90625 27.332031 L 2.277344 33.769531 L 8.402344 32.148438 L 7.863281 26.027344 Z M 3.90625 27.332031 "/>
<path style=" stroke:none;fill-rule:nonzero;fill:rgb(60.392157%,47.45098%,37.254902%);fill-opacity:1;" d="M 30.074219 25.496094 L 32.039062 23.175781 L 30.867188 18.550781 L 27.625 21.421875 Z M 30.074219 25.496094 "/>
<path style=" stroke:none;fill-rule:nonzero;fill:rgb(60.392157%,47.45098%,37.254902%);fill-opacity:1;" d="M 33.0625 27.21875 L 32.261719 24.054688 L 30.613281 26.042969 Z M 33.0625 27.21875 "/>
<path style=" stroke:none;fill-rule:nonzero;fill:rgb(95.686275%,77.254902%,20.392157%);fill-opacity:1;" d="M 24.207031 24.441406 L 29.378906 25.640625 L 27.144531 21.84375 Z M 24.207031 24.441406 "/>
<path style=" stroke:none;fill-rule:nonzero;fill:rgb(95.686275%,77.254902%,20.392157%);fill-opacity:1;" d="M 23.382812 24.25 L 26.542969 21.503906 L 22.820312 20.886719 L 23.097656 24.183594 Z M 23.382812 24.25 "/>
<path style=" stroke:none;fill-rule:nonzero;fill:rgb(49.803922%,69.803922%,22.352941%);fill-opacity:1;" d="M 23.648438 24.933594 L 23.195312 25.335938 L 23.90625 33.769531 L 33.980469 30.839844 L 33.265625 28.019531 L 29.957031 26.414062 Z M 23.648438 24.933594 "/>
<path style=" stroke:none;fill-rule:nonzero;fill:rgb(95.686275%,77.254902%,20.392157%);fill-opacity:1;" d="M 27.0625 21.054688 L 30.699219 17.890625 L 30.328125 16.417969 L 22.585938 18.105469 L 22.773438 20.347656 Z M 27.0625 21.054688 "/>
<path style=" stroke:none;fill-rule:nonzero;fill:rgb(54.901961%,77.647059%,24.313725%);fill-opacity:1;" d="M 22.773438 20.347656 L 22.585938 18.105469 L 19.140625 17.382812 L 16.648438 19.34375 Z M 22.773438 20.347656 "/>
<path style=" stroke:none;fill-rule:nonzero;fill:rgb(54.901961%,77.647059%,24.313725%);fill-opacity:1;" d="M 18.460938 17.238281 L 14.558594 16.417969 L 14.210938 20.539062 Z M 18.460938 17.238281 "/>
<path style=" stroke:none;fill-rule:nonzero;fill:rgb(54.901961%,77.647059%,24.313725%);fill-opacity:1;" d="M 14.144531 21.316406 L 13.96875 23.386719 L 16.210938 22.652344 C 16.285156 22.628906 16.363281 22.625 16.441406 22.640625 L 23.097656 24.183594 L 22.820312 20.886719 L 16.105469 19.773438 Z M 14.144531 21.316406 "/>
<path style=" stroke:none;fill-rule:nonzero;fill:rgb(64.705882%,52.156863%,42.745098%);fill-opacity:1;" d="M 18.054688 29.878906 L 17.707031 32.050781 L 23.90625 33.769531 L 23.195312 25.335938 Z M 18.054688 29.878906 "/>
<path style=" stroke:none;fill-rule:nonzero;fill:rgb(91.372549%,69.019608%,17.254902%);fill-opacity:1;" d="M 19.03125 23.851562 L 18.242188 28.722656 L 22.824219 24.738281 Z M 19.03125 23.851562 "/>
<path style=" stroke:none;fill-rule:nonzero;fill:rgb(54.901961%,77.647059%,24.313725%);fill-opacity:1;" d="M 16.339844 23.21875 L 13.914062 24.023438 L 13.339844 30.839844 L 16.910156 31.832031 L 18.332031 23.6875 Z M 16.339844 23.21875 "/>
<path style=" stroke:none;fill-rule:nonzero;fill:rgb(88.627451%,29.411765%,29.411765%);fill-opacity:1;" d="M 27.015625 0 C 22.714844 0 19.226562 3.488281 19.226562 7.789062 C 19.226562 11.210938 24.132812 17.847656 26.15625 20.441406 C 26.59375 21 27.4375 21 27.875 20.441406 C 29.898438 17.847656 34.804688 11.210938 34.804688 7.789062 C 34.804688 3.488281 31.316406 0 27.015625 0 Z M 27.015625 10.867188 C 25.316406 10.867188 23.941406 9.488281 23.941406 7.796875 C 23.941406 6.101562 25.316406 4.714844 27.015625 4.714844 C 28.714844 4.714844 30.09375 6.101562 30.09375 7.796875 C 30.09375 9.488281 28.714844 10.867188 27.015625 10.867188 Z M 27.015625 10.867188 "/>
<path style=" stroke:none;fill-rule:nonzero;fill:rgb(88.627451%,29.411765%,29.411765%);fill-opacity:1;" d="M 27.015625 0 C 22.714844 0 19.226562 3.488281 19.226562 7.789062 C 19.226562 12.097656 27.015625 21.515625 27.015625 21.515625 C 27.015625 21.515625 34.804688 12.097656 34.804688 7.789062 C 34.804688 3.488281 31.316406 0 27.015625 0 Z M 27.015625 10.867188 C 25.316406 10.867188 23.941406 9.488281 23.941406 7.796875 C 23.941406 6.101562 25.316406 4.714844 27.015625 4.714844 C 28.714844 4.714844 30.09375 6.101562 30.09375 7.796875 C 30.09375 9.488281 28.714844 10.867188 27.015625 10.867188 Z M 27.015625 10.867188 "/>
<path style=" stroke:none;fill-rule:nonzero;fill:rgb(24.313725%,26.27451%,27.843137%);fill-opacity:1;" d="M 31.007812 7.796875 C 31.007812 5.59375 29.21875 3.800781 27.011719 3.800781 C 24.808594 3.800781 23.027344 5.59375 23.027344 7.796875 C 23.027344 9.992188 24.808594 11.78125 27.011719 11.78125 C 29.21875 11.78125 31.007812 9.992188 31.007812 7.796875 Z M 27.015625 9.929688 C 25.835938 9.929688 24.878906 8.972656 24.878906 7.796875 C 24.878906 6.613281 25.835938 5.648438 27.015625 5.648438 C 28.199219 5.648438 29.15625 6.613281 29.15625 7.796875 C 29.15625 8.972656 28.199219 9.929688 27.015625 9.929688 Z M 27.015625 9.929688 "/>
<path style=" stroke:none;fill-rule:nonzero;fill:rgb(81.568627%,24.705882%,24.705882%);fill-opacity:1;" d="M 31.253906 1.261719 C 31.785156 2.539062 32.066406 3.910156 32.066406 5.351562 C 32.066406 10.511719 28.386719 14.886719 23.253906 16.476562 C 25.164062 19.269531 27.015625 21.515625 27.015625 21.515625 C 27.015625 21.515625 34.804688 12.101562 34.804688 7.789062 C 34.804688 5.050781 33.390625 2.640625 31.253906 1.261719 Z M 31.253906 1.261719 "/>
<use xlink:href="#surface5" mask="url(#mask0)"/>
<use xlink:href="#surface8" mask="url(#mask1)"/>
<path style=" stroke:none;fill-rule:nonzero;fill:rgb(88.627451%,29.411765%,29.411765%);fill-opacity:1;" d="M 9.492188 10.160156 C 7.589844 10.160156 6.042969 11.703125 6.042969 13.609375 C 6.042969 15.121094 8.21875 18.0625 9.113281 19.210938 C 9.308594 19.457031 9.679688 19.457031 9.871094 19.210938 C 10.769531 18.0625 12.941406 15.125 12.941406 13.609375 C 12.941406 11.703125 11.398438 10.160156 9.492188 10.160156 Z M 9.492188 14.96875 C 8.742188 14.96875 8.132812 14.359375 8.132812 13.609375 C 8.132812 12.859375 8.742188 12.246094 9.492188 12.246094 C 10.246094 12.246094 10.855469 12.859375 10.855469 13.609375 C 10.855469 14.359375 10.246094 14.96875 9.492188 14.96875 Z M 9.492188 14.96875 "/>
<path style=" stroke:none;fill-rule:nonzero;fill:rgb(88.627451%,29.411765%,29.411765%);fill-opacity:1;" d="M 9.492188 10.160156 C 7.589844 10.160156 6.042969 11.703125 6.042969 13.609375 C 6.042969 15.515625 9.492188 19.683594 9.492188 19.683594 C 9.492188 19.683594 12.941406 15.515625 12.941406 13.609375 C 12.941406 11.703125 11.398438 10.160156 9.492188 10.160156 Z M 9.492188 14.96875 C 8.742188 14.96875 8.132812 14.359375 8.132812 13.609375 C 8.132812 12.859375 8.742188 12.246094 9.492188 12.246094 C 10.246094 12.246094 10.855469 12.859375 10.855469 13.609375 C 10.855469 14.359375 10.246094 14.96875 9.492188 14.96875 Z M 9.492188 14.96875 "/>
<path style=" stroke:none;fill-rule:nonzero;fill:rgb(24.313725%,26.27451%,27.843137%);fill-opacity:1;" d="M 11.261719 13.609375 C 11.261719 12.632812 10.46875 11.84375 9.492188 11.84375 C 8.515625 11.84375 7.730469 12.632812 7.730469 13.609375 C 7.730469 14.582031 8.515625 15.375 9.492188 15.375 C 10.46875 15.375 11.261719 14.582031 11.261719 13.609375 Z M 9.496094 14.554688 C 8.972656 14.554688 8.546875 14.128906 8.546875 13.609375 C 8.546875 13.085938 8.972656 12.660156 9.496094 12.660156 C 10.019531 12.660156 10.441406 13.085938 10.441406 13.609375 C 10.441406 14.128906 10.019531 14.554688 9.496094 14.554688 Z M 9.496094 14.554688 "/>
<path style=" stroke:none;fill-rule:nonzero;fill:rgb(81.568627%,24.705882%,24.705882%);fill-opacity:1;" d="M 11.371094 10.714844 C 11.605469 11.28125 11.730469 11.886719 11.730469 12.527344 C 11.730469 14.8125 10.101562 16.75 7.828125 17.453125 C 8.671875 18.6875 9.496094 19.683594 9.496094 19.683594 C 9.496094 19.683594 12.941406 15.515625 12.941406 13.605469 C 12.941406 12.394531 12.316406 11.328125 11.371094 10.714844 Z M 11.371094 10.714844 "/>
<use xlink:href="#surface11" mask="url(#mask2)"/>
<use xlink:href="#surface14" mask="url(#mask3)"/>
<path style=" stroke:none;fill-rule:nonzero;fill:rgb(88.627451%,29.411765%,29.411765%);fill-opacity:1;" d="M 15.835938 20.890625 C 13.933594 20.890625 12.386719 22.433594 12.386719 24.339844 C 12.386719 25.851562 14.558594 28.792969 15.457031 29.941406 C 15.648438 30.1875 16.023438 30.1875 16.214844 29.941406 C 17.113281 28.792969 19.285156 25.855469 19.285156 24.339844 C 19.285156 22.433594 17.738281 20.890625 15.835938 20.890625 Z M 15.835938 25.699219 C 15.085938 25.699219 14.472656 25.089844 14.472656 24.339844 C 14.472656 23.589844 15.082031 22.976562 15.835938 22.976562 C 16.589844 22.976562 17.199219 23.589844 17.199219 24.339844 C 17.199219 25.089844 16.589844 25.699219 15.835938 25.699219 Z M 15.835938 25.699219 "/>
<path style=" stroke:none;fill-rule:nonzero;fill:rgb(88.627451%,29.411765%,29.411765%);fill-opacity:1;" d="M 15.835938 20.890625 C 13.933594 20.890625 12.386719 22.433594 12.386719 24.339844 C 12.386719 26.246094 15.835938 30.414062 15.835938 30.414062 C 15.835938 30.414062 19.285156 26.246094 19.285156 24.339844 C 19.285156 22.433594 17.738281 20.890625 15.835938 20.890625 Z M 15.835938 25.699219 C 15.085938 25.699219 14.472656 25.089844 14.472656 24.339844 C 14.472656 23.589844 15.082031 22.976562 15.835938 22.976562 C 16.589844 22.976562 17.199219 23.589844 17.199219 24.339844 C 17.199219 25.089844 16.589844 25.699219 15.835938 25.699219 Z M 15.835938 25.699219 "/>
<path style=" stroke:none;fill-rule:nonzero;fill:rgb(24.313725%,26.27451%,27.843137%);fill-opacity:1;" d="M 17.605469 24.34375 C 17.605469 23.367188 16.8125 22.574219 15.835938 22.574219 C 14.859375 22.574219 14.070312 23.367188 14.070312 24.34375 C 14.070312 25.3125 14.859375 26.105469 15.835938 26.105469 C 16.8125 26.105469 17.605469 25.3125 17.605469 24.34375 Z M 15.835938 25.285156 C 15.3125 25.285156 14.890625 24.863281 14.890625 24.339844 C 14.890625 23.816406 15.3125 23.390625 15.835938 23.390625 C 16.359375 23.390625 16.785156 23.816406 16.785156 24.339844 C 16.785156 24.863281 16.359375 25.285156 15.835938 25.285156 Z M 15.835938 25.285156 "/>
<path style=" stroke:none;fill-rule:nonzero;fill:rgb(81.568627%,24.705882%,24.705882%);fill-opacity:1;" d="M 17.710938 21.445312 C 17.945312 22.011719 18.070312 22.621094 18.070312 23.257812 C 18.070312 25.542969 16.441406 27.480469 14.171875 28.183594 C 15.015625 29.421875 15.835938 30.414062 15.835938 30.414062 C 15.835938 30.414062 19.285156 26.246094 19.285156 24.335938 C 19.285156 23.125 18.65625 22.058594 17.710938 21.445312 Z M 17.710938 21.445312 "/>
<use xlink:href="#surface17" mask="url(#mask4)"/>
<use xlink:href="#surface20" mask="url(#mask5)"/>
</g>
</svg>
